Coordinates
version=1
nRows=10
nColumns=40
inDegrees=yes

Units are S.I. units (second, meters, Newtons, ...)
If the header above contains a line with 'inDegrees', this indicates whether rotational values are in degrees (yes) or radians (no).

endheader
time	pelvis_tilt	pelvis_list	pelvis_rotation	pelvis_tx	pelvis_ty	pelvis_tz	hip_flexion_r	hip_adduction_r	hip_rotation_r	knee_angle_r	knee_angle_r_beta	ankle_angle_r	subtalar_angle_r	mtp_angle_r	hip_flexion_l	hip_adduction_l	hip_rotation_l	knee_angle_l	knee_angle_l_beta	ankle_angle_l	subtalar_angle_l	mtp_angle_l	lumbar_extension	lumbar_bending	lumbar_rotation	arm_flex_r	arm_add_r	arm_rot_r	elbow_flex_r	pro_sup_r	wrist_flex_r	wrist_dev_r	arm_flex_l	arm_add_l	arm_rot_l	elbow_flex_l	pro_sup_l	wrist_flex_l	wrist_dev_l
      2.96000000	    -36.96788608	      4.83012063	     -6.51660068	     -0.39821116	      0.61461729	     -0.89988052	    108.00345123	    -17.65202105	     10.36828121	    102.95761570	      1.79694938	     32.11923146	      0.00000000	      0.00000000	    106.19026733	    -30.14935218	      3.09641142	    104.81247701	      1.82932282	     38.44799083	      0.00000000	      0.00000000	    -18.40647828	     -5.08558247	      6.00658185	     16.62473172	    -53.99633857	     89.60996438	     89.70179333	     88.77580289	      0.00000000	      0.00000000	     21.41959662	    -57.05776645	     89.63037327	     96.25960525	     88.61442119	      0.00000000	      0.00000000
      2.96500000	    -36.85351709	      4.87254287	     -6.86959011	     -0.39807217	      0.61467722	     -0.89892916	    107.86387528	    -17.24766091	     10.31046690	    102.93893566	      1.79662336	     32.10685119	      0.00000000	      0.00000000	    106.09914609	    -30.60740410	      3.14515486	    104.88703478	      1.83062410	     38.51688108	      0.00000000	      0.00000000	    -18.50950706	     -5.28087514	      6.29385315	     16.66312882	    -53.92760936	     89.60926165	     89.62689872	     88.76800237	      0.00000000	      0.00000000	     21.43380032	    -57.10072706	     89.63032602	     96.30549610	     88.61309998	      0.00000000	      0.00000000
      2.97000000	    -36.90952655	      4.78221918	     -6.83322552	     -0.39813431	      0.61436824	     -0.89895637	    107.89544094	    -17.28560965	     10.23019945	    102.98055156	      1.79734969	     32.15490182	      0.00000000	      0.00000000	    106.26598795	    -30.56697942	      3.29334364	    104.91699425	      1.83114699	     38.45466688	      0.00000000	      0.00000000	    -18.45646131	     -5.16283610	      6.29991882	     16.64021303	    -53.94431426	     89.61037513	     89.67573241	     88.76480900	      0.00000000	      0.00000000	     21.41118942	    -57.08910227	     89.63057251	     96.26475549	     88.60248381	      0.00000000	      0.00000000
      2.97500000	    -37.04963312	      4.77547194	     -6.48307252	     -0.39822580	      0.61396678	     -0.90006175	    108.12058036	    -17.71896201	     10.32949741	    103.03142144	      1.79823754	     32.03810158	      0.00000000	      0.00000000	    106.36311734	    -30.06057992	      3.21806101	    104.87654871	      1.83044108	     38.67841740	      0.00000000	      0.00000000	    -18.31180410	     -4.98573892	      6.03187642	     16.52644072	    -53.95604981	     89.61034549	     89.47587402	     88.76237203	      0.00000000	      0.00000000	     21.42120717	    -56.93682437	     89.64222504	     96.05769944	     88.32227939	      0.00000000	      0.00000000
      2.98000000	    -36.89926895	      4.80904788	     -6.73062291	     -0.39806971	      0.61392272	     -0.89936288	    107.97109387	    -17.44353312	     10.28954226	    103.06065960	      1.79874784	     32.14494268	      0.00000000	      0.00000000	    106.26686276	    -30.37870142	      3.29014084	    104.97653995	      1.83218626	     38.49975964	      0.00000000	      0.00000000	    -18.47435139	     -5.12779019	      6.20294964	     16.59756855	    -53.99991673	     89.60922175	     89.75027377	     88.76531896	      0.00000000	      0.00000000	     21.41225045	    -57.08821938	     89.62997254	     96.31822168	     88.59034841	      0.00000000	      0.00000000
      2.98500000	    -36.89136744	      4.65143310	     -6.82252598	     -0.39808251	      0.61381475	     -0.89898945	    107.85771108	    -17.34735143	     10.09215394	    103.06413922	      1.79880857	     32.19333957	      0.00000000	      0.00000000	    106.40761081	    -30.48651019	      3.54187790	    105.00562712	      1.83269393	     38.50932914	      0.00000000	      0.00000000	    -18.49353321	     -5.00528074	      6.34407686	     16.57539642	    -54.01520856	     89.60790768	     89.75934112	     88.79346194	      0.00000000	      0.00000000	     21.42438087	    -57.06830837	     89.63039299	     96.28651555	     88.58070857	      0.00000000	      0.00000000
      2.99000000	    -37.04788691	      4.79567874	     -6.49669830	     -0.39825272	      0.61327798	     -0.90009331	    108.21436702	    -17.70915023	     10.38508061	    103.12671336	      1.79990069	     31.94751168	      0.00000000	      0.00000000	    106.47959773	    -30.05248932	      3.31964876	    105.04455420	      1.83337333	     38.49116411	      0.00000000	      0.00000000	    -18.31141447	     -5.00793646	      5.99042445	     16.56509281	    -54.00499261	     89.61289932	     89.62658753	     88.78126628	      0.00000000	      0.00000000	     21.39334889	    -57.04498651	     89.63361356	     96.27081528	     88.47982660	      0.00000000	      0.00000000
      2.99500000	    -37.14614362	      4.78417643	     -6.51184584	     -0.39851854	      0.61286761	     -0.90002537	    108.34314248	    -17.66235112	     10.38139459	    103.14146502	      1.80015816	     31.82631156	      0.00000000	      0.00000000	    106.66797573	    -30.05577434	      3.38644131	    105.04905448	      1.83345188	     38.36507009	      0.00000000	      0.00000000	    -18.19151800	     -4.99208242	      6.03408463	     16.52932887	    -54.07145882	     89.61100794	     89.76721349	     88.80854039	      0.00000000	      0.00000000	     21.37281529	    -57.07665970	     89.63221719	     96.30320489	     88.42520772	      0.00000000	      0.00000000
      3.00000000	    -37.00299703	      4.74183478	     -6.45662639	     -0.39821705	      0.61299613	     -0.90014689	    108.17453640	    -17.77354087	     10.35407052	    103.19403387	      1.80107566	     32.14674498	      0.00000000	      0.00000000	    106.49800500	    -29.98159020	      3.39387507	    105.07518601	      1.83390796	     38.45596493	      0.00000000	      0.00000000	    -18.37667303	     -4.94221679	      5.97826912	     16.55496825	    -54.09272307	     89.60657189	     89.85134496	     88.79558756	      0.00000000	      0.00000000	     21.40217667	    -57.06586957	     89.62837810	     96.34582579	     88.56066165	      0.00000000	      0.00000000
      3.00500000	    -36.88908924	      4.85313313	     -6.88847923	     -0.39807514	      0.61303061	     -0.89896878	    108.06217296	    -17.24635511	     10.34730553	    103.16967894	      1.80065059	     32.19591485	      0.00000000	      0.00000000	    106.37176594	    -30.57562648	      3.36705415	    105.14215192	      1.83507673	     38.59534957	      0.00000000	      0.00000000	    -18.46555765	     -5.24494271	      6.31155993	     16.56887210	    -53.97106281	     89.60882480	     89.71535384	     88.76786789	      0.00000000	      0.00000000	     21.41359454	    -57.13225741	     89.62872522	     96.35834096	     88.60627435	      0.00000000	      0.00000000
